<svg xmlns="http://www.w3.org/2000/svg" viewBox="117.881 74.16000366210938 339.2375030517578 437.89999786376956"> <svg xmlns="http://www.w3.org/2000/svg" xmlns:xlink="http://www.w3.org/1999/xlink" version="1.1" id="Layer_1" x="187.881" y="144.16000366210938" viewBox="202.0240020751953 91.88899993896484 347.64599609375 401.3269958496094" enable-background="new 0 0 792 612" xml:space="preserve" height="230" width="199.2375030517578" preserveAspectRatio="xMinYMin" style="overflow: visible;"><path fill-rule="evenodd" clip-rule="evenodd" d="M503.748,371.822c-0.19,0.149-66.353,51.591-48.519,117.479l-1.852,0.495  c-18.165-67.111,48.992-119.322,49.185-119.475L503.748,371.822z" style=""></path><path fill-rule="evenodd" clip-rule="evenodd" d="M540.302,367.827c-0.217,0.095-75.571,32.368-78.042,82.017l-1.912-0.09  c2.53-50.852,78.97-83.585,79.189-83.681L540.302,367.827z" style=""></path><path fill-rule="evenodd" clip-rule="evenodd" d="M503.084,372.028c-0.16-0.012-55.973-4.949-67.836,71.666l-1.89-0.293  c12.137-78.384,69.702-73.297,69.868-73.285L503.084,372.028z" style=""></path><path fill-rule="evenodd" clip-rule="evenodd" d="M419.135,384.344l-2.701,31.271l47.046-32.146L419.135,384.344L419.135,384.344z   M414.348,417.466l3.022-35.001l52.489-1.034l-55.687,38.049L414.348,417.466z" style=""></path><polygon fill-rule="evenodd" clip-rule="evenodd" fill="#CA0739" points="525.499,238.25 527.624,247 520.249,262.125   501.374,264.125 509.124,250.625 520.749,240.75 " style="fill: #CA0739;"></polygon><polygon fill-rule="evenodd" clip-rule="evenodd" fill="#FB024B" points="525.499,238.25 477.122,202.377 473.622,181.627   459.872,177.127 464.622,207.877 509.124,250.625 520.749,240.75 " style="fill: #FECD03; fill-opacity: 1;"></polygon><polygon fill-rule="evenodd" clip-rule="evenodd" fill="#243C96" points="473.622,181.627 483.434,186.065 486.684,200.19   484.442,207.805 477.122,202.377 " style="fill: #243C96;"></polygon><polygon fill-rule="evenodd" clip-rule="evenodd" fill="#F89E00" points="473.622,181.627 438.183,137.567 483.434,186.065 " style="fill: #F89E00;"></polygon><polygon fill-rule="evenodd" clip-rule="evenodd" fill="#FB7F05" points="464.622,207.877 489.181,261.193 501.374,264.125   509.124,250.625 " style="fill: #FB7F05;"></polygon><polygon fill-rule="evenodd" clip-rule="evenodd" fill="#037D6A" points="529.801,282.321 529.926,291.821 518.55,293.821   498.051,306.321 511.801,285.071 522.8,280.196 " style="fill: #037D6A;"></polygon><polygon fill-rule="evenodd" clip-rule="evenodd" fill="#FB7F05" points="520.249,262.125 529.801,282.321 522.8,280.196   501.374,264.125 " style="fill: #FB7F05;"></polygon><polygon fill-rule="evenodd" clip-rule="evenodd" fill="#F89E00" points="489.181,261.193 498.051,306.321 511.801,285.071 " style="fill: #F89E00;"></polygon><polygon fill-rule="evenodd" clip-rule="evenodd" fill="#FDEC02" points="522.8,280.196 511.801,285.071 489.181,261.193   501.374,264.125 " style="fill: #FDEC02;"></polygon><polygon fill-rule="evenodd" clip-rule="evenodd" fill="#27C69E" points="498.051,306.321 515.795,312.574 534.045,306.449   532.045,298.949 524.295,297.324 " style="fill: #27C69E;"></polygon><polygon fill-rule="evenodd" clip-rule="evenodd" fill="#037D6A" points="536.17,354.95 549.67,352.45 539.92,366.95 493.669,394.2   479.419,394.2 506.919,369.2 " style="fill: #037D6A;"></polygon><polygon fill-rule="evenodd" clip-rule="evenodd" fill="#60C005" points="518.67,329.2 536.17,354.95 549.67,352.45 532.42,315.45   " style="fill: #60C005;"></polygon><polygon fill-rule="evenodd" clip-rule="evenodd" fill="#CA0739" points="464.622,207.877 452.794,213.448 446.669,208.573   445.794,197.698 459.872,177.127 " style="fill: #CA0739;"></polygon><polygon fill-rule="evenodd" clip-rule="evenodd" fill="#073BA0" points="445.794,197.698 438.418,196.949 424.168,199.449   407.668,217.449 433.418,210.449 446.669,208.573 " style="fill: #073BA0;"></polygon><polygon fill-rule="evenodd" clip-rule="evenodd" fill="#FB024B" points="459.872,177.127 438.917,173.199 424.168,199.449   437.868,197.045 445.794,197.698 " style="fill: #FB024B;"></polygon><polygon fill-rule="evenodd" clip-rule="evenodd" fill="#0B54C4" points="407.668,217.449 454.915,226.574 446.669,208.573   433.418,210.449 " style="fill: #0B54C4;"></polygon><polygon fill-rule="evenodd" clip-rule="evenodd" fill="#FB7F05" points="446.669,208.573 452.794,213.448 464.622,207.877   489.181,261.193 454.915,226.574 " style="fill: #FB7F05;"></polygon><polygon fill-rule="evenodd" clip-rule="evenodd" fill="#F89E00" points="407.668,217.449 441.164,252.577 470.709,242.531   454.915,226.574 " style="fill: #F89E00;"></polygon><polygon fill-rule="evenodd" clip-rule="evenodd" fill="#FDEC02" points="441.164,252.577 439.413,284.953 450.679,307.194   475.163,312.703 498.051,306.321 489.181,261.193 470.709,242.531 " style="fill: #FDEC02;"></polygon><polygon fill-rule="evenodd" clip-rule="evenodd" fill="#FECD03" points="407.668,217.449 381.162,238.703 404.412,299.703   439.413,284.953 441.164,252.577 " style="fill: #FECD03;"></polygon><polygon fill-rule="evenodd" clip-rule="evenodd" fill="#D8EF00" points="404.412,299.703 407.911,327.703 426.411,354.203   469.169,343.7 439.413,284.953 " style="fill: #D8EF00;"></polygon><polygon fill-rule="evenodd" clip-rule="evenodd" fill="#A6D600" points="498.911,332.453 498.051,306.321 475.163,312.703   450.553,306.945 469.169,343.7 " style="fill: #A6D600;"></polygon><polygon fill-rule="evenodd" clip-rule="evenodd" fill="#029C51" points="469.169,343.7 466.669,382.45 505.749,370.264 " style="fill: #029C51;"></polygon><polygon fill-rule="evenodd" clip-rule="evenodd" fill="#00B623" points="518.67,329.2 536.17,354.95 505.749,370.264   469.169,343.7 498.911,332.453 " style="fill: #00B623;"></polygon><polygon fill-rule="evenodd" clip-rule="evenodd" fill="#D8EF00" points="515.795,312.574 518.67,329.2 532.42,315.45   534.045,306.449 " style="fill: #D8EF00;"></polygon><polygon fill-rule="evenodd" clip-rule="evenodd" fill="#B7E800" points="498.051,306.321 515.795,312.574 518.67,329.2   498.911,332.453 " style="fill: #B7E800;"></polygon><polygon fill-rule="evenodd" clip-rule="evenodd" fill="#F89E00" points="381.162,238.703 362.785,277.202 381.535,308.827   404.412,299.703 " style="fill: #F89E00;"></polygon><polygon fill-rule="evenodd" clip-rule="evenodd" fill="#6699FF" points="381.535,308.827 407.911,327.703 405.51,299.241 " style="fill: #6699FF;"></polygon><polygon fill-rule="evenodd" clip-rule="evenodd" fill="#FFFF00" points="417.782,381.702 426.411,354.203 466.669,382.45 " style="fill: #FFFF00;"></polygon><path fill-rule="evenodd" clip-rule="evenodd" d="M374.587,343.79l6.26-36.632l28.91,20.688l-35.488,17.81L374.587,343.79  L374.587,343.79z M382.222,310.497l-5.426,31.751l29.27-14.688L382.222,310.497z" style=""></path><polygon fill-rule="evenodd" clip-rule="evenodd" fill="#FCB000" points="362.785,277.202 324.156,257.075 350.656,203.075   381.162,238.703 " style="fill: #FCB000;"></polygon><polygon fill-rule="evenodd" clip-rule="evenodd" fill="#E41153" points="407.668,217.449 402.656,200.826 438.917,173.199   424.168,199.449 " style="fill: #E41153;"></polygon><polygon fill-rule="evenodd" clip-rule="evenodd" fill="#1C7BDF" points="381.162,238.703 402.656,200.826 407.668,217.449 " style="fill: #1C7BDF;"></polygon><polygon fill-rule="evenodd" clip-rule="evenodd" fill="#FC7F03" points="390.266,123.806 438.917,173.199 402.656,200.826   372.155,157.576 " style="fill: #FC7F03;"></polygon><polygon fill-rule="evenodd" clip-rule="evenodd" fill="#5E51F7" points="350.656,203.075 372.155,157.576 402.656,200.826   381.162,238.703 " style="fill: #5E51F7;"></polygon><polygon fill-rule="evenodd" clip-rule="evenodd" fill="#FF4606" points="390.266,123.806 425.905,125.326 438.183,137.567   473.622,181.627 459.872,177.127 438.917,173.199 " style="fill: #FECD03; fill-opacity: 1;"></polygon><polygon fill-rule="evenodd" clip-rule="evenodd" fill="#5E51F7" points="324.156,257.075 303.527,205.262 350.656,203.075 " style="fill: #5E51F7;"></polygon><polygon fill-rule="evenodd" clip-rule="evenodd" fill="#5E51F7" points="331.527,162.512 350.656,203.075 372.155,157.576 " style="fill: #5E51F7;"></polygon><polygon fill-rule="evenodd" clip-rule="evenodd" fill="#FF4606" points="354.152,115.013 372.155,157.576 390.266,123.806 " style="fill: #FF4606;"></polygon><polygon fill-rule="evenodd" clip-rule="evenodd" fill="#5E51F7" points="331.527,162.512 354.152,115.013 372.155,157.576 " style="fill: #5E51F7;"></polygon><polygon fill-rule="evenodd" clip-rule="evenodd" fill="#5E51F7" points="324.156,257.075 299.308,245.285 303.527,205.262 " style="fill: #5E51F7;"></polygon><polygon fill-rule="evenodd" clip-rule="evenodd" fill="#FF9600" points="425.905,125.326 380.651,99.013 390.266,123.806 " style="fill: #FF9600;"></polygon><polygon fill-rule="evenodd" clip-rule="evenodd" fill="#2BADFC" points="381.162,238.703 372.155,157.576 402.656,200.826 " style="fill: #2BADFC;"></polygon><polygon fill-rule="evenodd" clip-rule="evenodd" fill="#2506B2" points="225.963,312.889 324.156,257.075 209.963,202.888   202.024,258.311 " style="fill: #2506B2;"></polygon><polygon fill-rule="evenodd" clip-rule="evenodd" fill="#4F10D0" points="234.463,136.888 262.963,162.889 209.963,202.888 " style="fill: #4F10D0;"></polygon><polygon fill-rule="evenodd" clip-rule="evenodd" fill="#FF0103" points="380.651,99.013 322.964,91.889 354.152,115.013   390.266,123.806 " style="fill: #FF0103;"></polygon><polygon fill-rule="evenodd" clip-rule="evenodd" fill="#FE0100" points="322.964,91.889 270.963,103.889 354.152,115.013 " style="fill: #FE0100;"></polygon><polygon fill-rule="evenodd" clip-rule="evenodd" fill="#8C12DF" points="270.963,103.889 262.963,162.889 234.463,136.888 " style="fill: #8C12DF;"></polygon><polygon fill-rule="evenodd" clip-rule="evenodd" fill="#1C7BDF" points="262.963,162.889 299.308,245.285 209.963,202.888 " style="fill: #1C7BDF;"></polygon><polygon fill-rule="evenodd" clip-rule="evenodd" fill="#4F11CC" points="331.527,162.512 303.527,205.262 262.963,162.889 " style="fill: #4F11CC;"></polygon><polygon fill-rule="evenodd" clip-rule="evenodd" fill="#7C01D5" points="270.963,103.889 331.527,162.512 354.152,115.013 " style="fill: #7C01D5;"></polygon><polygon fill-rule="evenodd" clip-rule="evenodd" fill="#4106B0" points="209.963,202.888 249.465,255.89 324.156,257.075 " style="fill: #4106B0;"></polygon><polygon fill-rule="evenodd" clip-rule="evenodd" fill="#2506B2" points="225.963,312.889 249.465,255.89 324.156,257.075 " style="fill: #2506B2;"></polygon><polygon fill-rule="evenodd" clip-rule="evenodd" fill="#60C005" points="469.169,343.7 466.669,382.45 426.411,354.203 " style="fill: #60C005;"></polygon><polygon fill-rule="evenodd" clip-rule="evenodd" fill="#4F10D0" points="270.963,103.889 331.527,162.512 262.963,162.889 " style="fill: #4F10D0;"></polygon><path fill-rule="evenodd" clip-rule="evenodd" d="M328.542,313.199l-5.505-57.789l41.305,21.521  c-11.868,12.796-23.732,25.596-35.597,38.395L328.542,313.199L328.542,313.199z M325.275,258.741l4.969,52.151l30.983-33.419  L325.275,258.741z" style=""></path><polygon fill-rule="evenodd" clip-rule="evenodd" fill="#6699FF" points="262.963,162.889 299.308,245.285 303.527,205.262 " style="fill: #6699FF;"></polygon><polygon fill-rule="evenodd" clip-rule="evenodd" fill="#6699FF" points="331.527,162.512 350.656,203.075 303.527,205.262 " style="fill: #6699FF;"></polygon><path fill-rule="evenodd" clip-rule="evenodd" d="M227.972,312.847l47.848,24.684l3.619-53.936L227.972,312.847L227.972,312.847z   M276.24,339.902l-52.286-26.974l57.636-32.759l-4.052,60.402L276.24,339.902z" style=""></path><path fill-rule="evenodd" clip-rule="evenodd" d="M328.98,313.915l-50.319-32.081l46.307-26.321l5.665,59.456L328.98,313.915  L328.98,313.915z M282.367,281.93l45.989,29.32l-5.012-52.612L282.367,281.93z" style=""></path><path fill-rule="evenodd" clip-rule="evenodd" d="M277.746,337.462l49.8-24.461l-46.184-29.445L277.746,337.462L277.746,337.462z   M329.914,313.968l-54.303,26.672c1.351-20.144,2.7-40.288,4.055-60.432c17.259,11.003,34.516,22.009,51.776,33.009L329.914,313.968  z" style=""></path><path fill-rule="evenodd" clip-rule="evenodd" d="M331.106,315.34l11.212,40.438l31.153-12.055L331.106,315.34L331.106,315.34z   M340.756,357.307l-12.874-46.429l49.71,33.302l-36.554,14.145L340.756,357.307z" style=""></path><polygon fill-rule="evenodd" clip-rule="evenodd" points="381.609,309.783 329.569,314.065 329.419,312.153 381.459,307.871 " style=""></polygon><path fill-rule="evenodd" clip-rule="evenodd" d="M378.794,345.584L417.312,380l7.867-25.07L378.794,345.584L378.794,345.584z   M417.145,382.415l-44.874-40.096c18.458,3.719,36.915,7.44,55.373,11.156c-3.127,9.978-6.26,19.953-9.391,29.929L417.145,382.415z" style=""></path><path fill-rule="evenodd" clip-rule="evenodd" d="M329.494,318.858c3.099,0,5.625-2.582,5.625-5.75c0-3.167-2.527-5.75-5.625-5.75  c-3.098,0-5.625,2.583-5.625,5.75C323.869,316.276,326.396,318.858,329.494,318.858z" style=""></path><path fill-rule="evenodd" clip-rule="evenodd" d="M276.553,344.297c3.099,0,5.625-2.583,5.625-5.75s-2.527-5.75-5.625-5.75  c-3.098,0-5.625,2.583-5.625,5.75S273.455,344.297,276.553,344.297z" style=""></path><path fill-rule="evenodd" clip-rule="evenodd" d="M376.641,349.292c3.099,0,5.625-2.583,5.625-5.75s-2.527-5.75-5.625-5.75  c-3.098,0-5.625,2.583-5.625,5.75S373.542,349.292,376.641,349.292z" style=""></path><path fill-rule="evenodd" clip-rule="evenodd" d="M342.318,361.527c3.099,0,5.625-2.583,5.625-5.75s-2.527-5.75-5.625-5.75  c-3.098,0-5.625,2.583-5.625,5.75S339.22,361.527,342.318,361.527z" style=""></path><path fill-rule="evenodd" clip-rule="evenodd" d="M416.434,421.365c3.099,0,5.625-2.583,5.625-5.75s-2.526-5.75-5.625-5.75  s-5.625,2.583-5.625,5.75S413.335,421.365,416.434,421.365z" style=""></path><path fill-rule="evenodd" clip-rule="evenodd" d="M434.304,449.298c3.098,0,5.625-2.583,5.625-5.75c0-3.168-2.527-5.75-5.625-5.75  c-3.099,0-5.625,2.582-5.625,5.75C428.679,446.715,431.205,449.298,434.304,449.298z" style=""></path><path fill-rule="evenodd" clip-rule="evenodd" d="M454.754,493.216c3.098,0,5.625-2.583,5.625-5.75s-2.527-5.75-5.625-5.75  c-3.099,0-5.625,2.583-5.625,5.75S451.655,493.216,454.754,493.216z" style=""></path><path fill-rule="evenodd" clip-rule="evenodd" d="M462.26,455.594c3.099,0,5.625-2.583,5.625-5.75s-2.526-5.75-5.625-5.75  c-3.098,0-5.625,2.583-5.625,5.75S459.162,455.594,462.26,455.594z" style=""></path></svg> <svg y="396.16" viewBox="-6.25 21.209999084472656 196.60000610351562 45.900001525878906" x="189.2" height="45.900001525878906" width="196.60000610351562" style="overflow: visible;"><g fill="#000" style=""><path d="M37.17 25.52L37.17 25.52Q36.87 25.71 36.52 25.75Q36.18 25.78 35.82 25.84Q35.46 25.90 35.15 26.01Q34.85 26.13 34.70 26.43L34.70 26.43Q34.32 26.05 33.86 25.78Q33.40 25.52 32.94 25.21L32.94 25.21Q32.56 25.33 32.18 25.52Q31.80 25.71 31.42 25.71L31.42 25.71Q31.15 25.71 30.89 25.52L30.89 25.52Q30.58 25.75 30.18 25.88Q29.78 26.01 29.35 26.13Q28.91 26.24 28.55 26.43Q28.18 26.62 28.03 27.00L28.03 27.00Q27.96 26.81 27.67 26.89Q27.38 26.96 27.35 26.70L27.35 26.70Q26.13 27.12 24.87 27.42Q23.61 27.73 22.36 28.07Q21.10 28.41 19.88 28.83Q18.66 29.25 17.52 29.86L17.52 29.86Q17.48 29.90 17.48 29.97L17.48 29.97Q17.48 30.35 17.60 30.70Q17.71 31.04 17.79 31.34L17.79 31.34Q17.10 33.67 16.87 36.07Q16.64 38.47 16.26 40.79L16.26 40.79L16.26 40.94Q16.26 41.13 16.42 41.23Q16.57 41.32 16.57 41.55L16.57 41.55L16.53 41.63Q16.34 41.74 16.26 41.95Q16.19 42.16 16.19 42.39L16.19 42.39Q16.19 42.54 16.26 42.85L16.26 42.85Q15.62 45.02 15.41 47.26Q15.20 49.51 14.89 51.76L14.89 51.76L14.55 54.27Q14.47 54.50 14.42 54.71Q14.36 54.92 14.36 55.15L14.36 55.15Q14.36 56.37 14.53 57.53Q14.70 58.69 14.63 59.91L14.63 59.91Q14.97 60.44 14.97 60.94L14.97 60.94Q14.97 61.13 14.95 61.32Q14.93 61.51 14.89 61.70L14.89 61.70Q15.39 62.19 16.05 62.40Q16.72 62.61 17.25 63.07L17.25 63.07L17.25 63.22Q17.25 63.60 17.14 63.97Q17.02 64.33 16.95 64.71L16.95 64.71Q16.87 65.01 16.78 65.58Q16.68 66.16 16.53 66.35L16.53 66.35Q16.34 66.61 15.98 66.82Q15.62 67.03 15.27 67.03L15.27 67.03Q15.16 67.03 14.95 66.92Q14.74 66.80 14.63 66.73L14.63 66.73Q14.43 66.73 14.13 66.92Q13.83 67.11 13.52 67.11L13.52 67.11Q13.37 67.11 13.25 67.09Q13.14 67.07 12.99 66.99L12.99 66.99Q12.83 66.61 12.55 66.33Q12.26 66.04 11.88 65.77L11.88 65.77Q11.92 65.24 11.69 64.97Q11.46 64.71 11.24 64.29L11.24 64.29Q11.16 63.76 11.10 63.07Q11.04 62.38 10.51 62.08L10.51 62.08Q10.70 61.81 10.70 61.36L10.70 61.36Q10.70 61.17 10.65 60.94Q10.59 60.71 10.40 60.59L10.40 60.59L10.40 60.52Q10.36 60.33 10.53 60.23Q10.70 60.14 10.70 59.95L10.70 59.95L10.70 59.79Q10.44 58.58 10.44 57.24L10.44 57.24Q10.44 55.99 10.51 54.75Q10.59 53.51 10.51 52.25L10.51 52.25Q10.74 52.06 10.87 51.64Q11.01 51.23 11.08 50.73Q11.16 50.24 11.18 49.76Q11.20 49.28 11.24 48.98L11.24 48.98Q11.43 46.81 11.84 44.69Q12.26 42.58 12.34 40.37L12.34 40.37Q12.53 40.07 12.57 39.57Q12.61 39.08 12.61 38.52Q12.61 37.97 12.68 37.44Q12.76 36.91 12.99 36.52L12.99 36.52Q12.99 35.46 13.18 34.37Q13.37 33.29 13.37 32.18L13.37 32.18Q13.37 31.65 13.25 31.08L13.25 31.08Q12.87 30.93 12.57 30.93L12.57 30.93Q12.15 30.93 11.71 31.10Q11.27 31.27 11.08 31.61L11.08 31.61Q10.25 31.65 9.45 31.88Q8.65 32.11 7.85 32.11L7.85 32.11L7.46 32.11Q7.31 32.11 7.12 32.07L7.12 32.07Q6.86 32.18 6.57 32.26Q6.28 32.33 6.32 32.72L6.32 32.72Q5.14 32.83 4.02 33.21Q2.89 33.59 1.79 34.03Q0.69 34.47-0.44 34.85Q-1.56 35.23-2.74 35.34L-2.74 35.34Q-3.16 35.53-3.28 36.14L-3.28 36.14Q-4.11 36.07-4.68 35.72Q-5.26 35.38-6.02 35.08L-6.02 35.08Q-6.25 34.28-6.25 33.55L-6.25 33.55Q-6.25 32.60-5.87 31.73Q-5.48 30.85-4.65 30.43L-4.65 30.43Q-4.46 30.47-4.30 30.49Q-4.15 30.51-3.96 30.51L-3.96 30.51Q-3.35 30.51-2.74 30.28Q-2.13 30.05-1.49 30.05L-1.49 30.05Q-1.29 30.05-1.07 30.16L-1.07 30.16Q-0.80 30.01-0.40 29.92Q0 29.82 0.36 29.73Q0.72 29.63 1.03 29.44Q1.33 29.25 1.41 28.91L1.41 28.91Q1.60 29.06 1.83 29.10Q2.06 29.14 2.29 29.14L2.29 29.14Q2.78 29.14 3.31 28.95Q3.85 28.75 4.15 28.34L4.15 28.34Q4.42 28.64 4.91 28.64L4.91 28.64Q5.45 28.64 5.96 28.35Q6.47 28.07 6.97 28.07L6.97 28.07Q7.35 28.07 7.54 28.34L7.54 28.34Q7.96 27.99 8.53 27.80Q9.10 27.61 9.69 27.46Q10.28 27.31 10.80 27.12Q11.31 26.93 11.62 26.58L11.62 26.58Q11.81 26.62 12.23 26.62L12.23 26.62Q12.87 26.62 13.46 26.45Q14.05 26.28 14.66 26.13L14.66 26.13L15.46 26.05Q15.77 26.01 16.02 25.86Q16.26 25.71 16.53 25.59Q16.80 25.48 17.08 25.40Q17.37 25.33 17.79 25.37L17.79 25.37Q18.70 24.87 19.73 24.60Q20.76 24.34 21.82 24.13Q22.89 23.92 23.92 23.63Q24.95 23.35 25.86 22.78L25.86 22.78L25.97 22.78Q26.74 22.78 27.48 22.51Q28.22 22.24 28.87 21.79L28.87 21.79Q28.98 21.82 29.10 21.82L29.10 21.82L29.36 21.82Q30.43 21.82 31.44 21.52Q32.45 21.21 33.55 21.21L33.55 21.21Q34.20 21.21 34.58 21.39Q34.96 21.56 35.27 21.80Q35.57 22.05 35.92 22.28Q36.26 22.51 36.79 22.62L36.79 22.62Q37.13 23.27 37.13 24.01Q37.13 24.76 37.17 25.52ZM49.66 39.76L49.66 39.76Q49.44 40.10 49.40 40.52Q49.36 40.94 49.36 41.29L49.36 41.29Q49.36 41.74 49.38 42.18Q49.40 42.62 49.40 43.04L49.40 43.04L49.40 43.61Q49.32 43.88 49.17 44.14Q49.02 44.41 48.94 44.67L48.94 44.67Q48.41 46.08 48.41 47.49L48.41 47.49L48.41 47.57Q48.22 48.03 48.05 48.41Q47.87 48.79 47.72 49.15Q47.57 49.51 47.49 49.91Q47.42 50.31 47.46 50.84L47.46 50.84Q46.92 52.18 46.05 53.26Q45.17 54.35 44.33 55.49L44.33 55.49Q43.53 55.80 42.87 56.29Q42.20 56.79 41.59 57.40L41.59 57.40Q40.41 57.78 39.27 58.27Q38.12 58.77 37.21 59.60L37.21 59.60Q36.49 59.68 35.76 59.83Q35.04 59.99 34.35 60.29L34.35 60.29L33.90 60.29Q33.55 60.29 33.40 60.14L33.40 60.14Q32.91 60.40 32.37 60.50Q31.84 60.59 31.31 60.59L31.31 60.59Q30.62 60.59 29.95 60.50Q29.29 60.40 28.60 60.29L28.60 60.29Q28.22 59.76 27.54 59.47Q26.85 59.19 26.32 58.92L26.32 58.92Q25.21 57.40 24.72 55.97Q24.22 54.54 23.69 52.75L23.69 52.75Q23.77 52.22 23.96 51.70Q24.15 51.19 24.11 50.58L24.11 50.58Q24.79 48.60 25.92 46.98Q27.04 45.36 28.49 43.88L28.49 43.88Q28.49 43.65 28.58 43.49Q28.68 43.34 28.60 43.04L28.60 43.04Q28.64 43.08 28.75 43.08L28.75 43.08Q29.06 43.08 29.14 42.90Q29.21 42.73 29.17 42.50L29.17 42.50Q30.54 41.63 31.67 40.49Q32.79 39.34 34.24 38.58L34.24 38.58Q34.35 38.24 34.62 38.01Q34.89 37.78 35.04 37.48L35.04 37.48Q36.26 37.13 37.25 36.45Q38.24 35.76 39.34 35.23L39.34 35.23Q39.95 34.89 40.50 34.75Q41.06 34.62 41.70 34.47L41.70 34.47Q41.93 34.39 42.12 34.35Q42.31 34.32 42.54 34.32L42.54 34.32Q43.23 34.32 43.88 34.56Q44.52 34.81 45.21 34.81L45.21 34.81Q45.40 34.81 45.53 34.79Q45.67 34.77 45.82 34.73L45.82 34.73Q46.46 35.53 47.46 35.95L47.46 35.95Q47.68 36.52 48.01 36.94Q48.33 37.36 48.67 37.76Q49.02 38.16 49.30 38.64Q49.59 39.11 49.66 39.76ZM45.86 41.74L45.86 41.74Q45.86 41.55 45.82 41.40L45.82 41.40Q45.44 41.29 45.09 41.09Q44.75 40.90 44.33 40.90L44.33 40.90Q44.07 40.90 43.80 41.02L43.80 41.02Q43.76 40.75 43.59 40.64Q43.42 40.52 43.21 40.43Q43.00 40.33 42.79 40.28Q42.58 40.22 42.43 40.07L42.43 40.07Q42.31 39.76 42.18 39.44Q42.05 39.11 41.70 38.96L41.70 38.96Q41.36 39.30 40.90 39.51Q40.45 39.72 39.97 39.91Q39.50 40.10 39.06 40.37Q38.62 40.64 38.31 41.02L38.31 41.02L37.63 41.02Q37.40 41.44 36.98 41.65Q36.56 41.86 36.26 42.24L36.26 42.24Q35.65 42.54 35.13 42.98Q34.62 43.42 34.13 43.89Q33.63 44.37 33.15 44.87Q32.68 45.36 32.14 45.78L32.14 45.78Q31.65 46.85 31.06 47.63Q30.47 48.41 29.95 49.21Q29.44 50.01 29.08 50.94Q28.72 51.87 28.72 53.24L28.72 53.24L28.72 53.63Q28.72 53.82 28.75 54.01L28.75 54.01Q29.25 54.54 29.57 55.15Q29.90 55.76 30.66 56.02L30.66 56.02Q31.42 56.33 32.28 56.29Q33.13 56.25 33.93 56.48L33.93 56.48Q35.76 56.14 37.46 55.36Q39.15 54.58 40.68 53.47L40.68 53.47Q40.90 53.28 41.21 53.07Q41.51 52.86 41.70 52.63L41.70 52.63Q41.89 52.44 42.03 52.22Q42.16 51.99 42.31 51.80L42.31 51.80Q42.62 51.30 43.00 50.81Q43.38 50.31 43.80 49.89L43.80 49.89Q43.99 49.05 44.29 48.27Q44.60 47.49 44.90 46.73Q45.21 45.97 45.42 45.17Q45.63 44.37 45.63 43.49L45.63 43.49Q45.63 43.30 45.61 43.08Q45.59 42.85 45.55 42.66L45.55 42.66Q45.86 42.24 45.86 41.74ZM76.40 39.76L76.40 39.76Q76.17 40.10 76.13 40.52Q76.10 40.94 76.10 41.29L76.10 41.29Q76.10 41.74 76.11 42.18Q76.13 42.62 76.13 43.04L76.13 43.04L76.13 43.61Q76.06 43.88 75.91 44.14Q75.75 44.41 75.68 44.67L75.68 44.67Q75.14 46.08 75.14 47.49L75.14 47.49L75.14 47.57Q74.95 48.03 74.78 48.41Q74.61 48.79 74.46 49.15Q74.31 49.51 74.23 49.91Q74.15 50.31 74.19 50.84L74.19 50.84Q73.66 52.18 72.78 53.26Q71.91 54.35 71.07 55.49L71.07 55.49Q70.27 55.80 69.60 56.29Q68.94 56.79 68.33 57.40L68.33 57.40Q67.15 57.78 66.00 58.27Q64.86 58.77 63.95 59.60L63.95 59.60Q63.22 59.68 62.50 59.83Q61.78 59.99 61.09 60.29L61.09 60.29L60.63 60.29Q60.29 60.29 60.14 60.14L60.14 60.14Q59.64 60.40 59.11 60.50Q58.58 60.59 58.04 60.59L58.04 60.59Q57.36 60.59 56.69 60.50Q56.02 60.40 55.34 60.29L55.34 60.29Q54.96 59.76 54.27 59.47Q53.59 59.19 53.05 58.92L53.05 58.92Q51.95 57.40 51.45 55.97Q50.96 54.54 50.43 52.75L50.43 52.75Q50.50 52.22 50.69 51.70Q50.88 51.19 50.84 50.58L50.84 50.58Q51.53 48.60 52.65 46.98Q53.78 45.36 55.22 43.88L55.22 43.88Q55.22 43.65 55.32 43.49Q55.42 43.34 55.34 43.04L55.34 43.04Q55.38 43.08 55.49 43.08L55.49 43.08Q55.80 43.08 55.87 42.90Q55.95 42.73 55.91 42.50L55.91 42.50Q57.28 41.63 58.40 40.49Q59.53 39.34 60.98 38.58L60.98 38.58Q61.09 38.24 61.36 38.01Q61.62 37.78 61.78 37.48L61.78 37.48Q62.99 37.13 63.98 36.45Q64.97 35.76 66.08 35.23L66.08 35.23Q66.69 34.89 67.24 34.75Q67.79 34.62 68.44 34.47L68.44 34.47Q68.67 34.39 68.86 34.35Q69.05 34.32 69.28 34.32L69.28 34.32Q69.96 34.32 70.61 34.56Q71.26 34.81 71.94 34.81L71.94 34.81Q72.13 34.81 72.27 34.79Q72.40 34.77 72.55 34.73L72.55 34.73Q73.20 35.53 74.19 35.95L74.19 35.95Q74.42 36.52 74.74 36.94Q75.07 37.36 75.41 37.76Q75.75 38.16 76.04 38.64Q76.32 39.11 76.40 39.76ZM72.59 41.74L72.59 41.74Q72.59 41.55 72.55 41.40L72.55 41.40Q72.17 41.29 71.83 41.09Q71.49 40.90 71.07 40.90L71.07 40.90Q70.80 40.90 70.54 41.02L70.54 41.02Q70.50 40.75 70.33 40.64Q70.15 40.52 69.94 40.43Q69.74 40.33 69.53 40.28Q69.32 40.22 69.16 40.07L69.16 40.07Q69.05 39.76 68.92 39.44Q68.78 39.11 68.44 38.96L68.44 38.96Q68.10 39.30 67.64 39.51Q67.18 39.72 66.71 39.91Q66.23 40.10 65.79 40.37Q65.36 40.64 65.05 41.02L65.05 41.02L64.37 41.02Q64.14 41.44 63.72 41.65Q63.30 41.86 62.99 42.24L62.99 42.24Q62.38 42.54 61.87 42.98Q61.36 43.42 60.86 43.89Q60.37 44.37 59.89 44.87Q59.41 45.36 58.88 45.78L58.88 45.78Q58.39 46.85 57.80 47.63Q57.21 48.41 56.69 49.21Q56.18 50.01 55.81 50.94Q55.45 51.87 55.45 53.24L55.45 53.24L55.45 53.63Q55.45 53.82 55.49 54.01L55.49 54.01Q55.99 54.54 56.31 55.15Q56.63 55.76 57.40 56.02L57.40 56.02Q58.16 56.33 59.01 56.29Q59.87 56.25 60.67 56.48L60.67 56.48Q62.50 56.14 64.19 55.36Q65.89 54.58 67.41 53.47L67.41 53.47Q67.64 53.28 67.95 53.07Q68.25 52.86 68.44 52.63L68.44 52.63Q68.63 52.44 68.76 52.22Q68.90 51.99 69.05 51.80L69.05 51.80Q69.35 51.30 69.74 50.81Q70.12 50.31 70.54 49.89L70.54 49.89Q70.73 49.05 71.03 48.27Q71.33 47.49 71.64 46.73Q71.94 45.97 72.15 45.17Q72.36 44.37 72.36 43.49L72.36 43.49Q72.36 43.30 72.34 43.08Q72.33 42.85 72.29 42.66L72.29 42.66Q72.59 42.24 72.59 41.74ZM104.09 36.79L104.09 36.79Q104.01 37.25 103.88 37.57Q103.75 37.90 103.82 38.43L103.82 38.43Q103.44 38.47 103.23 38.68Q103.02 38.89 102.89 39.15Q102.76 39.42 102.62 39.70Q102.49 39.99 102.30 40.22L102.30 40.22Q102.60 41.59 102.64 43.00Q102.68 44.41 102.83 45.78L102.83 45.78Q103.02 47.53 103.42 49.23Q103.82 50.92 103.82 52.67L103.82 52.67Q103.82 53.21 103.80 53.66Q103.78 54.12 103.78 54.62L103.78 54.62Q103.78 54.92 103.80 55.24Q103.82 55.57 103.82 55.87L103.82 55.87Q103.82 56.98 103.54 58.08Q103.25 59.19 103.10 60.29L103.10 60.29Q102.64 60.71 102.32 61.20Q101.99 61.70 101.65 62.12Q101.31 62.54 100.85 62.86Q100.39 63.18 99.71 63.30L99.71 63.30Q99.59 63.68 99.27 63.87Q98.95 64.06 98.72 64.40L98.72 64.40L98.64 64.40Q97.69 64.40 97.00 64.14Q96.32 63.87 95.73 63.53Q95.14 63.18 94.53 62.80Q93.92 62.42 93.12 62.19L93.12 62.19Q92.05 61.32 91.18 60.27Q90.30 59.22 89.20 58.39L89.20 58.39Q88.93 57.62 88.49 57.13Q88.05 56.63 87.64 55.99L87.64 55.99Q87.45 55.72 87.35 55.49Q87.25 55.26 87.10 54.96L87.10 54.96Q86.99 54.65 86.74 54.54Q86.49 54.42 86.30 54.27L86.30 54.27Q86.00 53.09 85.43 52.10Q84.86 51.11 84.09 50.20L84.09 50.20Q83.87 50.62 83.73 51.09Q83.60 51.57 83.48 52.04Q83.37 52.52 83.20 53.00Q83.03 53.47 82.76 53.85L82.76 53.85L82.76 53.97Q82.76 54.16 82.91 54.20Q83.07 54.23 83.07 54.42L83.07 54.42Q83.07 54.46 83.05 54.50Q83.03 54.54 83.03 54.58L83.03 54.58Q82.84 54.73 82.74 54.96Q82.65 55.19 82.34 55.22L82.34 55.22Q82.38 55.42 82.38 55.61L82.38 55.61L82.38 55.95Q82.38 57.05 82.13 58.16Q81.88 59.26 81.88 60.40L81.88 60.40L81.88 60.90Q81.88 61.17 81.92 61.39L81.92 61.39Q82.00 61.62 82.15 61.85Q82.30 62.08 82.30 62.27L82.30 62.27Q82.30 62.54 82.08 62.77L82.08 62.77Q82.34 62.96 82.68 63.18Q83.03 63.41 83.31 63.70Q83.60 63.98 83.79 64.31Q83.98 64.63 83.98 65.01L83.98 65.01Q83.98 65.66 83.56 65.93Q83.14 66.19 82.55 66.35Q81.96 66.50 81.33 66.63Q80.70 66.76 80.29 67.11L80.29 67.11L80.17 67.11Q79.71 67.11 79.49 66.84Q79.26 66.57 78.80 66.57L78.80 66.57Q78.08 65.39 77.81 63.93Q77.54 62.46 77.54 61.13L77.54 61.13Q77.54 59.49 77.83 57.85Q78.11 56.21 78.51 54.62Q78.91 53.02 79.39 51.44Q79.87 49.85 80.29 48.25L80.29 48.25L80.32 48.14Q80.32 47.95 80.23 47.87Q80.13 47.80 80.13 47.65L80.13 47.65Q80.13 47.57 80.17 47.57L80.17 47.57Q80.29 47.19 80.42 46.85Q80.55 46.50 80.63 46.08L80.63 46.08Q80.86 45.02 80.95 43.89Q81.05 42.77 81.07 41.67Q81.08 40.56 81.14 39.44Q81.20 38.31 81.39 37.21L81.39 37.21Q81.69 36.91 81.96 36.56Q82.23 36.22 82.65 35.95L82.65 35.95Q83.41 35.99 84.17 36.18Q84.93 36.37 85.62 36.79L85.62 36.79Q86.07 38.43 86.25 40.07Q86.42 41.70 86.84 43.34L86.84 43.34L86.84 43.46Q86.84 43.65 87.05 43.63Q87.25 43.61 87.37 43.76L87.37 43.76Q87.29 43.88 87.27 44.03Q87.25 44.18 87.25 44.33L87.25 44.33L87.25 44.98Q87.33 45.28 87.45 45.63Q87.56 45.97 87.94 46.05L87.94 46.05Q88.13 47.26 88.51 48.29Q88.89 49.32 89.39 50.27Q89.88 51.23 90.45 52.16Q91.03 53.09 91.63 54.12L91.63 54.12Q92.59 54.84 93.27 55.78Q93.96 56.71 94.66 57.57Q95.37 58.42 96.26 59.07Q97.16 59.72 98.60 59.87L98.60 59.87Q98.79 59.72 98.87 59.45L98.87 59.45L99.06 58.92Q99.18 58.65 99.31 58.44Q99.44 58.23 99.71 58.12L99.71 58.12Q99.79 57.05 99.88 55.95Q99.98 54.84 100.36 53.85L100.36 53.85Q100.17 53.51 100.17 53.02L100.17 53.02Q100.17 52.63 100.22 52.29Q100.28 51.95 100.28 51.61L100.28 51.61Q100.28 50.88 99.98 50.43L99.98 50.43Q99.98 50.16 100.01 49.87Q100.05 49.59 100.24 49.32L100.24 49.32Q99.94 48.56 99.77 47.72Q99.59 46.88 99.59 46.01L99.59 46.01Q99.59 45.51 99.71 44.98L99.71 44.98Q99.48 44.41 99.40 43.65L99.40 43.65L99.25 42.08Q99.18 41.29 99.02 40.60Q98.87 39.91 98.45 39.50L98.45 39.50Q98.68 39.15 98.68 38.70L98.68 38.70Q98.68 37.93 98.45 37.25Q98.22 36.56 98.22 35.80L98.22 35.80Q98.22 35.27 98.45 34.73L98.45 34.73Q99.29 34.77 100.11 34.91Q100.93 35.04 101.73 35.04L101.73 35.04Q101.96 35.34 102.26 35.53Q102.57 35.72 102.91 35.90Q103.25 36.07 103.57 36.26Q103.90 36.45 104.09 36.79ZM151.32 52.33L151.32 52.33Q151.16 52.98 150.73 53.34Q150.29 53.70 149.72 53.89Q149.14 54.08 148.52 54.16Q147.89 54.23 147.39 54.27L147.39 54.27Q146.86 54.54 146.44 54.86Q146.02 55.19 145.56 55.49L145.56 55.49Q142.21 55.91 138.94 56.52Q135.66 57.13 132.31 57.55L132.31 57.55Q131.85 57.85 131.13 57.95Q130.41 58.04 129.63 58.10Q128.84 58.16 128.08 58.29Q127.32 58.42 126.75 58.77L126.75 58.77Q124.27 58.88 121.95 59.60L121.95 59.60Q121.53 59.49 121.09 59.41Q120.66 59.34 120.24 59.34L120.24 59.34Q119.93 59.34 119.55 59.40Q119.17 59.45 118.94 59.76L118.94 59.76Q118.03 59.03 116.77 59.22L116.77 59.22Q115.74 58.77 114.96 58.08Q114.18 57.40 113.76 56.33L113.76 56.33Q113.80 55.72 113.76 55.40Q113.72 55.07 113.23 54.69L113.23 54.69Q113.23 54.42 113.40 54.27Q113.57 54.12 113.61 53.85L113.61 53.85Q113.46 53.59 113.46 53.21L113.46 53.21Q113.46 52.56 113.69 51.89Q113.92 51.23 113.76 50.58L113.76 50.58Q114.30 49.70 114.98 48.92Q115.67 48.14 116.37 47.40Q117.08 46.66 117.78 45.89Q118.49 45.13 119.09 44.29L119.09 44.29Q119.82 44.07 120.41 43.59Q121.00 43.11 121.55 42.58Q122.10 42.05 122.67 41.55Q123.25 41.06 124.01 40.75L124.01 40.75Q124.08 40.52 124.26 40.35Q124.43 40.18 124.62 40.03Q124.81 39.88 124.98 39.69Q125.15 39.50 125.23 39.23L125.23 39.23L124.88 39.23Q123.17 39.23 121.46 39.44Q119.74 39.65 118.05 39.93Q116.35 40.22 114.68 40.52Q113.00 40.83 111.29 41.02L111.29 41.02Q110.64 41.36 109.88 41.63Q109.12 41.89 108.37 42.16Q107.63 42.43 106.93 42.77Q106.22 43.11 105.69 43.61L105.69 43.61Q105.57 43.65 105.35 43.65L105.35 43.65Q104.93 43.65 104.62 43.48Q104.32 43.30 103.94 43.23L103.94 43.23Q103.86 42.62 103.69 42.07Q103.52 41.51 103.52 40.90L103.52 40.90Q103.52 40.41 103.67 40.07L103.67 40.07Q104.20 40.07 104.41 39.72Q104.62 39.38 105.04 39.11L105.04 39.11Q105.16 39.23 105.27 39.23L105.27 39.23Q105.46 39.23 105.61 39.08Q105.76 38.92 105.99 38.77Q106.22 38.62 106.53 38.50Q106.83 38.39 107.33 38.43L107.33 38.43Q108.47 37.82 109.48 37.67Q110.49 37.51 111.71 37.32L111.71 37.32Q112.01 37.25 112.13 37.13Q112.24 37.02 112.39 36.79L112.39 36.79L113.19 36.83Q114.83 36.91 116.47 36.62Q118.10 36.33 119.72 35.99Q121.34 35.65 123.00 35.40Q124.66 35.15 126.33 35.31L126.33 35.31Q126.75 35.12 127.19 35.08Q127.63 35.04 128.08 35.04L128.08 35.04Q128.69 35.04 129.42 35.15Q130.14 35.27 130.77 35.57Q131.40 35.88 131.80 36.39Q132.20 36.91 132.20 37.67L132.20 37.67Q132.20 38.09 132.01 38.43Q131.82 38.77 131.55 39.08Q131.28 39.38 130.98 39.67Q130.67 39.95 130.41 40.22L130.41 40.22Q129.99 40.68 129.63 41.19Q129.26 41.70 128.77 42.12L128.77 42.12Q128.50 42.08 128.37 42.24Q128.24 42.39 127.97 42.39L127.97 42.39Q127.47 42.62 127.40 43.23L127.40 43.23Q126.37 43.65 125.42 44.22Q124.46 44.79 123.86 45.78L123.86 45.78Q123.06 46.27 122.35 46.90Q121.65 47.53 121.00 48.22Q120.35 48.90 119.72 49.61Q119.09 50.31 118.41 50.96L118.41 50.96Q118.33 51.53 118.14 52.03Q117.95 52.52 117.72 53.05L117.72 53.05Q117.72 53.47 117.99 53.78Q118.26 54.08 118.26 54.58L118.26 54.58Q119.21 54.77 120.14 54.86Q121.08 54.96 122.07 54.96L122.07 54.96Q123.02 54.96 123.97 54.82Q124.92 54.69 125.76 54.27L125.76 54.27Q126.33 54.42 126.94 54.42L126.94 54.42Q127.78 54.42 128.56 54.25Q129.34 54.08 130.14 54.12L130.14 54.12Q131.09 53.78 132.10 53.64Q133.11 53.51 134.10 53.42Q135.09 53.32 136.10 53.17Q137.11 53.02 138.06 52.60L138.06 52.60Q138.59 52.71 139.05 52.63Q139.51 52.56 140.04 52.56L140.04 52.56Q140.42 52.56 140.96 52.79L140.96 52.79Q141.57 52.48 142.23 52.25Q142.90 52.03 143.58 52.03L143.58 52.03Q143.85 52.03 144.12 52.06Q144.38 52.10 144.61 52.22L144.61 52.22Q144.69 52.18 144.99 52.06Q145.30 51.95 145.64 51.83Q145.98 51.72 146.29 51.63Q146.59 51.53 146.67 51.53L146.67 51.53Q146.97 51.53 146.95 51.70Q146.94 51.87 147.13 51.87L147.13 51.87Q147.77 51.87 148.38 51.63Q148.99 51.38 149.64 51.38L149.64 51.38Q149.91 51.38 150.13 51.42Q150.36 51.45 150.67 51.53L150.67 51.53Q150.82 51.76 150.93 52.01Q151.05 52.25 151.32 52.33ZM162.67 39.76L162.67 39.76Q162.44 40.10 162.40 40.52Q162.36 40.94 162.36 41.29L162.36 41.29Q162.36 41.74 162.38 42.18Q162.40 42.62 162.40 43.04L162.40 43.04L162.40 43.61Q162.32 43.88 162.17 44.14Q162.02 44.41 161.94 44.67L161.94 44.67Q161.41 46.08 161.41 47.49L161.41 47.49L161.41 47.57Q161.22 48.03 161.05 48.41Q160.88 48.79 160.72 49.15Q160.57 49.51 160.49 49.91Q160.42 50.31 160.46 50.84L160.46 50.84Q159.92 52.18 159.05 53.26Q158.17 54.35 157.33 55.49L157.33 55.49Q156.53 55.80 155.87 56.29Q155.20 56.79 154.59 57.40L154.59 57.40Q153.41 57.78 152.27 58.27Q151.13 58.77 150.21 59.60L150.21 59.60Q149.49 59.68 148.76 59.83Q148.04 59.99 147.35 60.29L147.35 60.29L146.90 60.29Q146.55 60.29 146.40 60.14L146.40 60.14Q145.91 60.40 145.37 60.50Q144.84 60.59 144.31 60.59L144.31 60.59Q143.62 60.59 142.96 60.50Q142.29 60.40 141.60 60.29L141.60 60.29Q141.22 59.76 140.54 59.47Q139.85 59.19 139.32 58.92L139.32 58.92Q138.21 57.40 137.72 55.97Q137.22 54.54 136.69 52.75L136.69 52.75Q136.77 52.22 136.96 51.70Q137.15 51.19 137.11 50.58L137.11 50.58Q137.79 48.60 138.92 46.98Q140.04 45.36 141.49 43.88L141.49 43.88Q141.49 43.65 141.58 43.49Q141.68 43.34 141.60 43.04L141.60 43.04Q141.64 43.08 141.76 43.08L141.76 43.08Q142.06 43.08 142.14 42.90Q142.21 42.73 142.17 42.50L142.17 42.50Q143.55 41.63 144.67 40.49Q145.79 39.34 147.24 38.58L147.24 38.58Q147.35 38.24 147.62 38.01Q147.89 37.78 148.04 37.48L148.04 37.48Q149.26 37.13 150.25 36.45Q151.24 35.76 152.34 35.23L152.34 35.23Q152.95 34.89 153.51 34.75Q154.06 34.62 154.71 34.47L154.71 34.47Q154.93 34.39 155.12 34.35Q155.31 34.32 155.54 34.32L155.54 34.32Q156.23 34.32 156.88 34.56Q157.52 34.81 158.21 34.81L158.21 34.81Q158.40 34.81 158.53 34.79Q158.67 34.77 158.82 34.73L158.82 34.73Q159.47 35.53 160.46 35.95L160.46 35.95Q160.68 36.52 161.01 36.94Q161.33 37.36 161.67 37.76Q162.02 38.16 162.30 38.64Q162.59 39.11 162.67 39.76ZM158.86 41.74L158.86 41.74Q158.86 41.55 158.82 41.40L158.82 41.40Q158.44 41.29 158.09 41.09Q157.75 40.90 157.33 40.90L157.33 40.90Q157.07 40.90 156.80 41.02L156.80 41.02Q156.76 40.75 156.59 40.64Q156.42 40.52 156.21 40.43Q156 40.33 155.79 40.28Q155.58 40.22 155.43 40.07L155.43 40.07Q155.31 39.76 155.18 39.44Q155.05 39.11 154.71 38.96L154.71 38.96Q154.36 39.30 153.91 39.51Q153.45 39.72 152.97 39.91Q152.50 40.10 152.06 40.37Q151.62 40.64 151.32 41.02L151.32 41.02L150.63 41.02Q150.40 41.44 149.98 41.65Q149.56 41.86 149.26 42.24L149.26 42.24Q148.65 42.54 148.14 42.98Q147.62 43.42 147.13 43.89Q146.63 44.37 146.15 44.87Q145.68 45.36 145.15 45.78L145.15 45.78Q144.65 46.85 144.06 47.63Q143.47 48.41 142.96 49.21Q142.44 50.01 142.08 50.94Q141.72 51.87 141.72 53.24L141.72 53.24L141.72 53.63Q141.72 53.82 141.76 54.01L141.76 54.01Q142.25 54.54 142.57 55.15Q142.90 55.76 143.66 56.02L143.66 56.02Q144.42 56.33 145.28 56.29Q146.14 56.25 146.94 56.48L146.94 56.48Q148.76 56.14 150.46 55.36Q152.15 54.58 153.68 53.47L153.68 53.47Q153.91 53.28 154.21 53.07Q154.51 52.86 154.71 52.63L154.71 52.63Q154.90 52.44 155.03 52.22Q155.16 51.99 155.31 51.80L155.31 51.80Q155.62 51.30 156 50.81Q156.38 50.31 156.80 49.89L156.80 49.89Q156.99 49.05 157.29 48.27Q157.60 47.49 157.90 46.73Q158.21 45.97 158.42 45.17Q158.63 44.37 158.63 43.49L158.63 43.49Q158.63 43.30 158.61 43.08Q158.59 42.85 158.55 42.66L158.55 42.66Q158.86 42.24 158.86 41.74ZM190.35 36.79L190.35 36.79Q190.28 37.25 190.14 37.57Q190.01 37.90 190.09 38.43L190.09 38.43Q189.71 38.47 189.50 38.68Q189.29 38.89 189.15 39.15Q189.02 39.42 188.89 39.70Q188.75 39.99 188.56 40.22L188.56 40.22Q188.87 41.59 188.91 43.00Q188.94 44.41 189.10 45.78L189.10 45.78Q189.29 47.53 189.69 49.23Q190.09 50.92 190.09 52.67L190.09 52.67Q190.09 53.21 190.07 53.66Q190.05 54.12 190.05 54.62L190.05 54.62Q190.05 54.92 190.07 55.24Q190.09 55.57 190.09 55.87L190.09 55.87Q190.09 56.98 189.80 58.08Q189.52 59.19 189.36 60.29L189.36 60.29Q188.91 60.71 188.58 61.20Q188.26 61.70 187.92 62.12Q187.57 62.54 187.12 62.86Q186.66 63.18 185.97 63.30L185.97 63.30Q185.86 63.68 185.54 63.87Q185.21 64.06 184.98 64.40L184.98 64.40L184.91 64.40Q183.96 64.40 183.27 64.14Q182.58 63.87 181.99 63.53Q181.40 63.18 180.79 62.80Q180.18 62.42 179.38 62.19L179.38 62.19Q178.32 61.32 177.44 60.27Q176.57 59.22 175.46 58.39L175.46 58.39Q175.20 57.62 174.76 57.13Q174.32 56.63 173.90 55.99L173.90 55.99Q173.71 55.72 173.61 55.49Q173.52 55.26 173.37 54.96L173.37 54.96Q173.25 54.65 173.01 54.54Q172.76 54.42 172.57 54.27L172.57 54.27Q172.26 53.09 171.69 52.10Q171.12 51.11 170.36 50.20L170.36 50.20Q170.13 50.62 170.00 51.09Q169.86 51.57 169.75 52.04Q169.63 52.52 169.46 53.00Q169.29 53.47 169.03 53.85L169.03 53.85L169.03 53.97Q169.03 54.16 169.18 54.20Q169.33 54.23 169.33 54.42L169.33 54.42Q169.33 54.46 169.31 54.50Q169.29 54.54 169.29 54.58L169.29 54.58Q169.10 54.73 169.01 54.96Q168.91 55.19 168.61 55.22L168.61 55.22Q168.64 55.42 168.64 55.61L168.64 55.61L168.64 55.95Q168.64 57.05 168.40 58.16Q168.15 59.26 168.15 60.40L168.15 60.40L168.15 60.90Q168.15 61.17 168.19 61.39L168.19 61.39Q168.26 61.62 168.42 61.85Q168.57 62.08 168.57 62.27L168.57 62.27Q168.57 62.54 168.34 62.77L168.34 62.77Q168.61 62.96 168.95 63.18Q169.29 63.41 169.58 63.70Q169.86 63.98 170.05 64.31Q170.24 64.63 170.24 65.01L170.24 65.01Q170.24 65.66 169.83 65.93Q169.41 66.19 168.82 66.35Q168.23 66.50 167.60 66.63Q166.97 66.76 166.55 67.11L166.55 67.11L166.44 67.11Q165.98 67.11 165.75 66.84Q165.52 66.57 165.06 66.57L165.06 66.57Q164.34 65.39 164.07 63.93Q163.81 62.46 163.81 61.13L163.81 61.13Q163.81 59.49 164.09 57.85Q164.38 56.21 164.78 54.62Q165.18 53.02 165.65 51.44Q166.13 49.85 166.55 48.25L166.55 48.25L166.59 48.14Q166.59 47.95 166.49 47.87Q166.40 47.80 166.40 47.65L166.40 47.65Q166.40 47.57 166.44 47.57L166.44 47.57Q166.55 47.19 166.68 46.85Q166.82 46.50 166.89 46.08L166.89 46.08Q167.12 45.02 167.22 43.89Q167.31 42.77 167.33 41.67Q167.35 40.56 167.41 39.44Q167.46 38.31 167.65 37.21L167.65 37.21Q167.96 36.91 168.23 36.56Q168.49 36.22 168.91 35.95L168.91 35.95Q169.67 35.99 170.43 36.18Q171.20 36.37 171.88 36.79L171.88 36.79Q172.34 38.43 172.51 40.07Q172.68 41.70 173.10 43.34L173.10 43.34L173.10 43.46Q173.10 43.65 173.31 43.63Q173.52 43.61 173.63 43.76L173.63 43.76Q173.56 43.88 173.54 44.03Q173.52 44.18 173.52 44.33L173.52 44.33L173.52 44.98Q173.60 45.28 173.71 45.63Q173.82 45.97 174.21 46.05L174.21 46.05Q174.40 47.26 174.78 48.29Q175.16 49.32 175.65 50.27Q176.15 51.23 176.72 52.16Q177.29 53.09 177.90 54.12L177.90 54.12Q178.85 54.84 179.54 55.78Q180.22 56.71 180.93 57.57Q181.63 58.42 182.53 59.07Q183.42 59.72 184.87 59.87L184.87 59.87Q185.06 59.72 185.14 59.45L185.14 59.45L185.33 58.92Q185.44 58.65 185.57 58.44Q185.71 58.23 185.97 58.12L185.97 58.12Q186.05 57.05 186.15 55.95Q186.24 54.84 186.62 53.85L186.62 53.85Q186.43 53.51 186.43 53.02L186.43 53.02Q186.43 52.63 186.49 52.29Q186.54 51.95 186.54 51.61L186.54 51.61Q186.54 50.88 186.24 50.43L186.24 50.43Q186.24 50.16 186.28 49.87Q186.32 49.59 186.51 49.32L186.51 49.32Q186.20 48.56 186.03 47.72Q185.86 46.88 185.86 46.01L185.86 46.01Q185.86 45.51 185.97 44.98L185.97 44.98Q185.75 44.41 185.67 43.65L185.67 43.65L185.52 42.08Q185.44 41.29 185.29 40.60Q185.14 39.91 184.72 39.50L184.72 39.50Q184.95 39.15 184.95 38.70L184.95 38.70Q184.95 37.93 184.72 37.25Q184.49 36.56 184.49 35.80L184.49 35.80Q184.49 35.27 184.72 34.73L184.72 34.73Q185.55 34.77 186.37 34.91Q187.19 35.04 187.99 35.04L187.99 35.04Q188.22 35.34 188.53 35.53Q188.83 35.72 189.17 35.90Q189.52 36.07 189.84 36.26Q190.16 36.45 190.35 36.79Z" transform="translate(0, 0)"></path></g></svg></svg>